<svg width="200" height="200" viewBox="0 0 200 200" fill="none" xmlns="http://www.w3.org/2000/svg">
<g clip-path="url(#clip0_308_1354)">
<path d="M125.808 142.965C125.795 148.961 122.972 152.171 117.703 152.171C112.528 152.171 109.623 148.863 109.636 143.024L109.666 132.398H115.473L115.46 142.685C115.451 145.536 116.1 146.799 117.668 146.789C119.231 146.794 119.989 145.654 119.997 142.39L120.023 132.393H125.839L125.808 142.965Z" fill="white"/>
<path d="M42.4866 137.303L42.4476 151.768H36.5718L36.6108 137.303L31.6963 137.308L31.7093 132.393L47.4097 132.398L47.3968 137.308L42.4866 137.303Z" fill="white"/>
<path d="M57.2908 136.812L55.8316 143.447L58.7543 143.452L57.2908 136.812ZM61.0319 151.768L60.0533 148.214H54.5413L53.4977 151.768L47.6479 151.773L53.632 132.393H61.0579L66.886 151.768H61.0319Z" fill="white"/>
<path d="M144.631 150.274L142.881 145.246C141.846 146.17 140.794 147.006 139.088 147.001C136.785 147.001 135.252 144.755 135.26 142.012C135.265 139.23 136.62 136.906 139.023 136.901C140.534 136.891 141.855 137.795 142.903 138.793L144.644 133.878C142.704 132.718 140.768 132.02 138.101 132.02C133.16 132.01 129.406 136.031 129.393 141.958C129.376 148.215 133.009 152.176 138.214 152.176C141.08 152.171 143.093 151.385 144.631 150.274Z" fill="white"/>
<path d="M157.824 151.773L154.169 144.715L154.148 151.783L148.441 151.773L148.493 132.398H154.2L154.178 139.496L157.638 132.403H164.007L158.629 141.953L164.648 151.778L157.824 151.773Z" fill="white"/>
<path d="M21.8543 152.166C25.5565 152.161 29.3885 150.598 29.3971 145.644C29.4145 141.171 26.2103 139.952 23.7206 139.309C21.8414 138.837 20.9321 138.601 20.9407 137.706C20.9407 136.527 22.2137 136.428 22.8892 136.428C24.5822 136.433 26.1583 137.254 27.5136 138.232L29.0464 133.819C27.0546 132.801 24.6515 132 22.3956 132C18.5549 132 15.5456 134.202 15.5412 138.625C15.5283 142.258 17.8405 143.658 20.4038 144.41C22.1704 144.926 23.3049 145.094 23.3006 146.126C23.2962 147.168 22.4302 147.477 21.5859 147.472C19.7153 147.477 17.9444 146.514 16.8532 145.388L15 149.669C16.9831 151.203 19.4079 152.166 21.8543 152.166Z" fill="white"/>
<path d="M173.286 152.171C176.984 152.171 180.825 150.613 180.838 145.654C180.846 141.181 177.651 139.957 175.157 139.323C173.273 138.842 172.373 138.616 172.377 137.721C172.386 136.532 173.646 136.443 174.321 136.438C176.014 136.443 177.59 137.264 178.941 138.252L180.483 133.833C178.487 132.816 176.075 132.015 173.827 132.005C169.991 132.015 166.982 134.202 166.973 138.635C166.96 142.272 169.281 143.678 171.831 144.43C173.598 144.946 174.737 145.098 174.728 146.145C174.728 147.182 173.862 147.492 173.018 147.492C171.152 147.492 169.381 146.529 168.276 145.403L166.432 149.684C168.415 151.208 170.848 152.171 173.286 152.171Z" fill="white"/>
<path d="M82.3787 144.533C84.3748 143.668 85.466 141.27 85.466 139.043C85.4833 134.472 82.855 132.398 79.1139 132.403L70.3067 132.393L70.2634 151.768H75.914L75.927 146.022H77.3559L80.2743 151.768H86.3796L82.3787 144.533ZM79.7461 139.068C79.7374 140.341 79.0663 141.078 77.9535 141.078L75.9443 141.073L75.9573 137.028H77.9881C79.0619 137.033 79.7547 137.682 79.7504 139.009V139.068H79.7461Z" fill="white"/>
<path d="M102.201 141.879C104.323 141.339 105.371 139.918 105.375 137.559C105.388 134.256 103.31 132.398 99.6425 132.398L90.3417 132.403L90.3027 151.783H99.2311C103.544 151.768 105.696 149.965 105.7 146.308C105.704 143.786 104.366 142.086 102.201 141.879ZM95.9274 136.601H97.9754C99.0536 136.591 99.7594 137.146 99.7594 138.282L99.7551 138.336C99.7551 139.412 99.0709 140.041 97.9451 140.046L95.923 140.051L95.9274 136.601ZM99.82 145.777C99.8243 146.907 99.1185 147.576 97.9668 147.571L95.8971 147.576L95.9057 143.944H97.9971C99.1012 143.944 99.82 144.529 99.8243 145.723L99.82 145.777Z" fill="white"/>
<path d="M185.09 133.361H183.869V137.942H183.219V133.361H182.016V132.673H185.094V133.361H185.09ZM186.311 137.947H185.661V132.673H186.666L187.852 136.669L189 132.673H190V137.947H189.351V133.543H189.333L188.043 137.942H187.623L186.333 133.543H186.315V137.947H186.311Z" fill="white"/>
</g>
<g clip-path="url(#clip1_308_1354)">
<path d="M155.169 54.3899C155.169 84.3761 130.433 108.685 99.9249 108.685C69.411 108.685 44.6748 84.3761 44.6748 54.3899C44.6748 24.4038 69.411 0.0947266 99.9192 0.0947266C130.433 0.0947266 155.169 24.4038 155.169 54.3899Z" fill="white"/>
<path d="M99.6055 18.988C101.573 20.0977 103.661 21.5254 105.246 23.0367L104.625 23.6501C101.488 23.3267 98.1853 23.7282 95.2138 23.7784C94.883 23.4494 94.2157 22.9586 94.8374 22.5459L99.6055 18.988ZM155.044 57.066C155.084 58.449 155.221 59.6369 154.667 61.0534C148.941 62.6483 145.177 56.7147 139.621 57.6125L140.249 60.6853C145.388 60.8526 148.605 65.6709 153.915 65.4646C153.162 66.9368 154.251 70.8238 150.909 69.2679C147.441 68.4537 144.931 65.4646 141.127 65.4646C140.671 66.2899 140.956 67.4276 140.876 68.4035C144.892 69.017 147.772 72.3351 151.787 72.9486C151.411 74.2981 151.034 75.8039 149.905 76.6292C146.643 75.854 144.093 72.9876 140.62 73.0712L139.998 75.8931C143.3 75.9767 145.433 78.832 148.399 79.6908C148.479 80.8787 147.39 81.9439 146.768 83.009C144.133 82.2338 142.125 80.0254 139.114 80.1872C139.074 79.0774 139.747 77.8171 139.49 76.6348C136.108 77.6163 133.844 74.5491 131.34 72.7032C131.266 66.6747 124.775 62.7208 124.433 57.0716C124.365 55.9451 124.541 54.7461 125.066 53.4523C127.199 48.6284 126.526 42.3657 124.188 37.8708C123.475 36.6886 122.22 35.7517 121.045 35.0601C122.762 38.6181 124.855 42.823 123.811 47.1951C123.692 50.5747 121.655 53.8147 121.627 57.0716C121.621 58.2315 121.872 59.3915 122.557 60.5626C125.277 65.353 130.165 69.8814 128.328 75.8875C127.821 77.7334 126.315 79.1611 125.939 81.0348C129.121 83.6113 132.127 86.5168 136.348 86.6785C137.853 85.7416 137.015 81.5758 140.112 83.4942L144.629 85.7026C144.298 86.8848 143.289 87.9444 142.371 88.7586C140.654 87.9444 138.983 86.9629 136.85 87.0466C136.216 87.699 135.675 88.4352 135.726 89.3721C137.232 89.6119 138.612 90.2365 139.867 91.0953C139.285 92.3222 138.144 93.0918 137.101 94.0342L133.599 92.8073C133.011 93.6271 131.796 94.4859 132.224 95.3838C133.011 95.7184 133.889 96.1646 134.471 96.739C132.926 98.3729 130.964 99.4269 129.076 100.537C127.45 95.3448 122.095 91.7032 122.557 85.697L122.306 85.4516C121.045 86.8347 121.467 89.0486 121.547 90.8443C123.053 94.6031 126.646 97.5141 127.193 101.635C126.566 102.695 125.146 102.907 124.057 103.359C124.182 95.9192 112.644 90.2811 120.041 82.7581C122.511 79.0718 126.646 75.5585 125.18 70.4892C123.674 65.5928 118.359 62.5591 118.404 57.0716L118.416 56.6422C119.625 50.9204 123.309 44.825 120.298 38.7352C119.459 36.287 117.583 33.5042 115.034 32.4781C118.838 36.7332 120.344 43.6762 118.171 49.4035C117.075 51.6789 115.564 54.3947 115.416 57.0716H115.404C115.324 58.4713 115.615 59.8599 116.539 61.176C119.425 65.7546 124.439 70.7848 121.553 76.7575C118.29 81.5367 112.61 86.3997 115.781 92.6958C118.079 96.4545 121.638 100.208 120.674 104.831L116.91 106.058C119.42 97.436 107.128 92.3668 112.273 83.7451C115.45 79.1276 121.131 74.7945 117.914 68.6656C115.992 64.8679 112.016 62.6204 112.142 57.8746L112.279 57.0771C113.573 50.346 118.809 43.9718 115.148 36.7778C114.184 34.653 112.262 32.4893 110.129 31.2624L110.003 31.3907C114.269 35.4394 115.564 42.098 113.265 47.4461C112.193 50.5858 109.838 53.7144 109.359 57.0771C109.13 58.6609 109.324 60.3061 110.26 62.0404C112.975 66.2453 117.743 70.7067 114.765 76.1496C111.634 80.6389 106.41 85.0111 108.497 90.8555C110.796 95.9694 115.598 100.838 113.009 107.173L109.125 108.032C112.216 101.853 107.579 95.7296 104.864 90.3703C101.562 82.6856 111.965 79.0049 112.13 71.9782C112.091 67.4443 107.163 64.8679 106.119 60.702C103.986 58.9398 101.773 61.4047 99.2234 60.9474C97.3412 61.3155 94.4438 58.41 93.3202 61.5608C91.9799 66.1784 85.8828 69.5691 88.5635 75.0454C91.113 79.9083 97.2557 83.4719 95.2024 89.768C93.3658 95.6515 87.303 101.251 91.0616 108.032C89.516 107.541 86.63 108.478 86.6699 106.063C84.2858 97.8487 94.4438 93.0639 91.3069 84.8493C89.8468 79.8191 83.1965 77.0419 84.6623 70.9911C85.7459 66.0111 91.4609 62.5312 90.6567 57.0771C90.5939 56.6198 90.4742 56.1514 90.3145 55.6662C88.1813 49.7828 83.8295 43.8937 86.4246 37.0232C87.1376 35.0602 88.5578 33.3871 89.8068 31.6305C85.6832 33.7887 83.5957 38.3672 83.6813 43.0237C83.4987 48.0874 87.3258 52.4317 87.8733 57.066C88.0901 58.9398 87.7764 60.8526 86.4361 62.8881C83.7212 66.4907 80.1679 70.2885 81.7991 75.0343C83.3447 79.8191 89.4475 82.719 89.0711 88.279C89.0312 94.854 81.2116 98.9529 83.4303 106.309L79.5405 105.076C77.9948 98.5402 85.1014 95.1942 85.1813 89.1434C86.1851 82.1892 77.1108 79.6072 77.6583 72.8259C77.6184 67.673 82.2554 64.4106 84.3029 60.0774C84.6566 59.0234 84.7706 58.0252 84.725 57.0716C84.474 52.2811 80.0595 48.5336 80.7896 43.1464C81.0348 39.1814 82.4151 35.7071 85.0501 32.7235C81.417 34.1511 79.9112 38.2445 78.9074 41.6742C77.1621 47.1784 81.3257 52.1306 81.7421 57.066C81.9246 59.2465 81.3827 61.4103 79.2838 63.6242C76.2724 67.093 73.2153 71.4707 75.394 76.1385C77.6982 81.2858 84.9303 85.2899 81.7934 91.7087C80.0823 95.7574 75.9815 98.8191 76.1526 103.604C75.0689 103.152 73.9396 102.706 73.0156 101.892C73.0156 95.8021 81.8732 91.9987 77.6526 85.5799C77.2762 86.8458 77.1963 88.569 76.9055 89.9967C75.4396 93.7164 72.3084 96.6943 71.1335 100.542C69.1715 99.8006 67.1239 98.2447 65.4927 96.6107L67.7513 95.2611C67.5003 94.4413 66.833 93.7498 66.2456 93.0527C64.7798 92.852 63.8159 93.7944 62.6067 94.1625C61.563 93.2591 60.5534 92.4449 59.7207 91.3407C60.4736 89.2494 66.3311 90.9782 63.3653 87.5429C61.3633 86.316 59.35 88.0671 57.5933 88.8869L55.2149 85.948C57.2625 84.7211 59.3044 83.0034 61.8538 83.4942C62.4812 84.5984 62.5269 86.2268 63.736 86.8012C68.0422 86.7175 71.0936 83.5332 74.3959 81.0404C72.0974 77.6944 70.2209 73.0712 72.2685 69.0225C73.9054 64.9627 78.1716 61.5497 78.3656 57.066C78.4112 56.0454 78.2458 54.9691 77.7895 53.8147C75.5309 48.132 74.7381 40.4529 79.0443 35.4226C76.7001 36.0361 75.3199 38.8914 74.5271 41.0607C71.9377 46.6096 75.2115 51.7514 75.3256 57.066C75.3427 58.0252 75.2628 58.9788 75.0233 59.9492C72.8046 64.3213 69.2171 68.1581 68.6296 73.1939C66.0802 74.7833 63.987 77.5661 60.3481 76.6292C60.2226 77.5661 60.5135 78.9993 60.8443 80.0645C57.964 79.9474 55.9963 82.0219 53.5723 83.0034C52.2776 82.5963 51.9411 80.9623 51.4449 79.8191C54.2853 78.8822 56.3328 76.0994 59.5952 76.1385C59.9717 75.1123 59.3842 74.1699 59.2188 73.1884C55.1636 71.4261 48.73 81.8937 48.1882 72.8203C52.2434 72.5749 54.8328 68.8943 58.8481 68.5262L58.9679 65.5873C54.4107 65.1355 51.4791 69.7196 46.9277 69.2679L45.9239 65.3475C51.1939 65.6709 54.3309 61.0534 59.35 60.8024C60.0173 59.9436 60.0972 58.6777 60.2283 57.4954C54.7529 56.7983 50.9943 62.732 45.1824 60.9307C45.1824 60.9307 44.9828 58.4602 44.8744 57.066H44.8801C44.8402 56.5195 44.8003 56.1402 44.8003 56.1402C49.9848 58.1088 54.5362 54.4672 58.9736 52.5879C60.1029 52.2588 61.8595 52.8277 62.3672 51.6064C62.3215 50.6639 64.0782 49.5653 62.6181 48.9128C56.1332 48.054 51.827 55.6997 45.1824 52.2198L44.6748 51.2383C46.0608 32.7625 56.715 14.9058 74.3959 6.11684C81.5538 2.11274 90.4513 0.0716512 99.423 -0.000846503C110.248 -0.0900744 121.193 2.68714 129.332 8.31966C137.237 13.0599 144.795 20.8729 148.901 28.803C152.825 35.7517 154.633 43.548 155.169 51.8462C148.314 56.9098 143.711 47.0725 136.73 49.2753C137.106 50.3404 137.317 51.4391 138.11 52.3425C144.298 52.2979 148.559 58.6386 155.038 56.1402L155.044 57.066ZM76.2724 34.3129C71.9263 31.5301 66.411 34.1511 62.3615 35.6624C61.985 31.9428 60.4394 28.5521 57.2169 26.0983C56.9032 25.9477 56.4697 25.6243 56.0819 25.602C55.848 25.5853 55.6256 25.6801 55.4545 25.9701C56.9146 34.759 51.0742 40.8878 46.9334 47.5521C48.3137 48.6563 50.5266 48.489 52.1978 48.1655C56.5838 46.4479 60.7645 43.4643 65.9946 44.4849C67.5403 41.9084 70.1354 39.4156 72.2628 37.3745C73.5632 36.2815 75.3484 35.5788 76.2724 34.3129ZM89.5673 39.8338C89.4817 40.3636 89.6072 41.3061 90.4456 40.9436C91.746 39.1869 94.0389 40.5756 95.4647 40.6982V40.2019C94.6834 39.0029 93.0807 38.4062 91.4552 38.462C91.0787 38.4731 90.6966 38.5289 90.3316 38.6125C89.7783 38.7352 89.4019 39.2204 89.5673 39.8338ZM110.014 34.5694C108.845 32.032 106.17 31.0114 103.741 30.398C102.549 30.253 101.317 30.1582 100.09 30.147C99.8622 30.147 99.634 30.1415 99.4002 30.147C95.9724 30.214 92.6985 31.0728 90.6966 33.8333C90.4114 34.614 89.1452 35.7071 90.3202 36.4041C92.9552 36.2368 95.961 35.9134 97.7176 38.1274C97.7176 40.0904 99.0123 42.7059 96.8393 43.6428C95.037 42.0144 92.9039 44.3343 90.9475 43.0293C90.0236 42.4995 89.4418 43.1185 89.0654 43.8937C88.5178 48.963 91.2327 54.5509 96.0807 57.3727C98.0427 58.0642 100.689 58.7223 102.737 57.7408C107.67 55.4933 109.712 50.346 110.63 45.6058C110.505 44.7023 110.551 42.9457 109.256 42.9011C107.796 43.8045 105.663 43.2691 104.111 42.9011C103.193 43.191 103.153 44.5016 102.109 44.747L101.476 44.2506C100.934 42.0088 100.598 38.8189 102.731 37.263C105.115 36.3205 107.916 35.9134 110.385 36.6495C110.853 35.8744 110.14 35.2609 110.014 34.5694ZM107.493 38.5958C107.328 38.6014 107.168 38.607 107.003 38.6125C106.125 39.1814 103.575 38.7743 104.493 40.6982C106.085 39.4658 108.298 40.3302 109.889 40.9436C110.476 40.6592 110.351 40.0848 110.391 39.594C109.878 38.6627 108.663 38.5735 107.493 38.5958ZM125.699 21.3135C122.602 21.1517 120.013 22.8694 117.172 23.6501C116.927 21.2856 118.764 18.7872 119.18 16.4115C114.583 16.7015 110.944 19.4062 107.14 21.57C106.262 19.4899 105.377 17.3986 104.505 15.3129L109.518 10.6507L109.649 10.0373L102.874 9.66923C101.704 7.66718 101.248 5.2636 99.8679 3.42328C98.7386 5.50898 97.98 7.71179 96.8507 9.79749L90.0806 10.1656V10.6507L95.2195 15.1846C94.5921 17.5157 94.0103 20.0476 92.4647 21.8098C89.4532 20.0476 86.4874 18.1292 83.1907 16.9078C82.398 16.6569 81.263 16.2498 80.5557 16.7796C81.5995 19.027 83.0596 21.4473 82.8143 23.9011C81.4341 23.6501 80.3504 22.7857 79.05 22.4232C77.4986 22.0106 75.6564 21.2019 74.1564 21.6927C76.6659 25.1224 78.7135 28.7138 79.4207 32.8462C87.7422 28.9202 97.4496 26.7564 107.522 28.435C112.245 29.1711 116.585 31.0505 120.811 32.6008C120.971 28.2733 123.771 24.7934 125.699 21.3135ZM139.987 44.8641C144.247 45.9683 148.519 50.5077 153.036 47.5632C149.106 41.189 143.26 35.2999 144.886 26.9627C145.057 26.3939 144.681 25.8195 144.139 25.7358C141.589 26.7564 139.616 29.2101 138.606 31.6249C138.19 33.0525 137.945 34.5694 137.363 35.9134C134.311 34.3575 131.049 32.8518 127.33 33.2198C125.99 33.3816 124.068 33.4708 123.817 34.8148C128.038 37.0232 131.511 40.7038 134.1 44.6243C135.897 44.3343 138.104 44.5797 139.987 44.8641ZM95.3393 50.6248L95.459 51.3666C97.0903 52.4317 97.5922 54.233 99.8565 54.0713C101.864 54.1884 103.364 52.3481 104.368 50.8814C101.653 50.5077 98.3507 51.0766 95.3393 50.6248ZM97.5979 47.3178C97.6777 47.6469 97.3925 48.1376 97.8488 48.2993C99.1892 48.0149 101.607 48.9964 102.355 47.4405C101.836 46.8717 100.98 46.6096 100.09 46.6096C99.1949 46.6096 98.2709 46.8661 97.5979 47.3178Z" fill="#4AA366"/>
<path opacity="0.99" d="M95.345 45.8965H104.511V49.5771H95.345V45.8965Z" fill="white"/>
<path d="M97.039 47.865C98.2253 48.1382 98.5162 48.5509 99.4516 48.6624C100.444 48.6457 100.301 48.4449 102.041 47.8594C102.155 47.8203 102.309 47.575 102.115 47.3854C101.037 46.3369 100.29 47.0842 99.617 47.1065C98.7216 47.1177 97.8774 46.3592 97.0048 47.3463C96.8565 47.5527 96.7766 47.7478 97.039 47.865Z" fill="#4AA366"/>
</g>
<defs>
<clipPath id="clip0_308_1354">
<rect width="180" height="20.1711" fill="white" transform="translate(10 132)"/>
</clipPath>
<clipPath id="clip1_308_1354">
<rect width="110.495" height="108.685" fill="white" transform="translate(44.6748)"/>
</clipPath>
</defs>
</svg>
