<svg width="70" height="70" viewBox="0 0 70 70" fill="none" xmlns="http://www.w3.org/2000/svg">
<g clip-path="url(#clip0_309_1387)">
<path d="M70.0001 35.0305C70.0001 54.3435 54.3293 70 35.0019 70C15.6709 70 0.00012207 54.3435 0.00012207 35.0305C0.00012207 15.7176 15.6709 0.0610352 34.9983 0.0610352C54.3293 0.0610352 70.0001 15.7176 70.0001 35.0305Z" fill="white"/>
<path d="M34.7995 12.2294C36.046 12.9441 37.3685 13.8636 38.373 14.837L37.9791 15.2321C35.9918 15.0238 33.8998 15.2824 32.0172 15.3147C31.8077 15.1028 31.3849 14.7867 31.7788 14.5209L34.7995 12.2294ZM69.9205 36.754C69.9458 37.6447 70.0325 38.4098 69.682 39.3221C66.0543 40.3493 63.6695 36.5277 60.1502 37.106L60.5477 39.085C63.8032 39.1928 65.8411 42.2961 69.2051 42.1632C68.7281 43.1114 69.4183 45.6149 67.3009 44.6128C65.104 44.0884 63.5142 42.1632 61.1041 42.1632C60.8151 42.6948 60.9957 43.4275 60.9451 44.056C63.4889 44.4511 65.3136 46.5882 67.8573 46.9833C67.6189 47.8525 67.3804 48.8223 66.6649 49.3539C64.5982 48.8546 62.983 47.0085 60.7825 47.0623L60.3887 48.8798C62.4808 48.9337 63.8321 50.7726 65.711 51.3258C65.7616 52.0908 65.0715 52.7769 64.6776 53.4629C63.0083 52.9636 61.7364 51.5413 59.8286 51.6454C59.8033 50.9307 60.2297 50.1189 60.0671 49.3575C57.9244 49.9896 56.49 48.0142 54.9037 46.8253C54.8568 42.9426 50.7448 40.396 50.5281 36.7576C50.4847 36.032 50.5967 35.2598 50.9291 34.4265C52.2805 31.3196 51.8541 27.2861 50.3727 24.3911C49.921 23.6296 49.1261 23.0262 48.3818 22.5808C49.4694 24.8724 50.7954 27.5806 50.1342 30.3965C50.0583 32.5731 48.7684 34.66 48.7503 36.7576C48.7467 37.5046 48.9057 38.2517 49.3393 39.006C51.0628 42.0913 54.1594 45.0079 52.9959 48.8762C52.6743 50.0651 51.7204 50.9846 51.482 52.1914C53.4982 53.8508 55.4024 55.7221 58.0762 55.8263C59.0301 55.2228 58.4989 52.5398 60.461 53.7754L63.3227 55.1977C63.1131 55.9592 62.4735 56.6416 61.8918 57.166C60.8042 56.6416 59.7455 56.0094 58.3942 56.0633C57.9931 56.4836 57.6498 56.9577 57.6823 57.5611C58.6362 57.7155 59.5107 58.1178 60.3056 58.6709C59.937 59.4611 59.2144 59.9568 58.5531 60.5638L56.3346 59.7736C55.9624 60.3016 55.1928 60.8547 55.4638 61.433C55.9624 61.6485 56.5189 61.9359 56.8874 62.3058C55.9082 63.3582 54.6653 64.037 53.4693 64.7518C52.4395 61.4079 49.0466 59.0624 49.3393 55.1941L49.1803 55.0361C48.3818 55.9268 48.6492 57.3528 48.6997 58.5093C49.6536 60.9302 51.93 62.8051 52.2769 65.4594C51.8794 66.1418 50.9797 66.2783 50.2896 66.5692C50.3691 61.7778 43.0594 58.1465 47.7458 53.3012C49.3104 50.9271 51.93 48.6643 51.0014 45.3994C50.0475 42.2458 46.6799 40.2919 46.7088 36.7576L46.716 36.481C47.4821 32.7958 49.8162 28.87 47.9084 24.9478C47.3773 23.371 46.1885 21.5787 44.5734 20.9179C46.9834 23.6584 47.9373 28.1301 46.5607 31.8189C45.8669 33.2843 44.9094 35.0335 44.8155 36.7576H44.8082C44.7577 37.6591 44.9419 38.5534 45.5273 39.4011C47.3556 42.3499 50.5317 45.5897 48.7033 49.4365C46.6366 52.5146 43.0377 55.6467 45.0467 59.7018C46.5029 62.1226 48.7575 64.5399 48.1469 67.5175L45.7621 68.3077C47.352 62.7548 39.5654 59.4899 42.8245 53.937C44.8371 50.963 48.436 48.1722 46.3981 44.2248C45.1804 41.7788 42.662 40.3314 42.7414 37.2748L42.8282 36.7611C43.6484 32.4259 46.9654 28.3205 44.6456 23.6871C44.035 22.3186 42.8173 20.925 41.466 20.1348L41.3865 20.2175C44.0892 22.8251 44.9094 27.1137 43.4533 30.5582C42.774 32.5803 41.2817 34.5953 40.9782 36.7611C40.8336 37.7812 40.9565 38.8408 41.5491 39.9578C43.269 42.666 46.2897 45.5394 44.4036 49.045C42.4199 51.9364 39.1101 54.7523 40.4326 58.5165C41.8887 61.8101 44.9311 64.9458 43.2907 69.026L40.83 69.5791C42.7884 65.5995 39.8508 61.6557 38.1309 58.204C36.0388 53.2546 42.6294 50.884 42.7342 46.3584C42.7089 43.4383 39.5871 41.7788 38.9258 39.0958C37.5745 37.9608 36.1725 39.5484 34.5574 39.2538C33.365 39.4909 31.5294 37.6196 30.8176 39.6489C29.9685 42.6229 26.1059 44.8067 27.8042 48.3338C29.4193 51.4659 33.3108 53.761 32.01 57.8161C30.8465 61.6054 27.0056 65.2116 29.3868 69.5791C28.4076 69.2631 26.5793 69.8665 26.6046 68.3113C25.0942 63.0206 31.5294 59.9388 29.5421 54.6482C28.6171 51.4084 24.4041 49.6197 25.3327 45.7226C26.0192 42.5152 29.6397 40.2739 29.1302 36.7611C29.0905 36.4666 29.0146 36.1649 28.9134 35.8524C27.5621 32.0631 24.8051 28.2702 26.4492 23.8451C26.9008 22.5808 27.8005 21.5033 28.5919 20.3719C25.9795 21.7619 24.657 24.7108 24.7112 27.7099C24.5956 30.9712 27.0201 33.7692 27.367 36.754C27.5043 37.9608 27.3055 39.1928 26.4564 40.5038C24.7365 42.8241 22.4854 45.2701 23.5188 48.3266C24.498 51.4084 28.3642 53.2761 28.1257 56.8571C28.1004 61.0918 23.1466 63.7317 24.5522 68.4693L22.088 67.6755C21.1088 63.466 25.6109 61.3109 25.6615 57.4138C26.2974 52.9349 20.5487 51.2719 20.8956 46.9043C20.8703 43.5855 23.8079 41.4843 25.105 38.6935C25.3291 38.0147 25.4013 37.3717 25.3724 36.7576C25.2134 33.6722 22.4168 31.2586 22.8793 27.7889C23.0346 25.2352 23.909 22.9975 25.5784 21.0759C23.2767 21.9954 22.3228 24.6317 21.6869 26.8407C20.5812 30.3858 23.2189 33.5752 23.4827 36.754C23.5983 38.1583 23.255 39.552 21.9254 40.9779C20.0176 43.212 18.0808 46.0315 19.4611 49.0378C20.9209 52.353 25.5025 54.9319 23.5152 59.066C22.4312 61.6737 19.8333 63.6455 19.9417 66.7273C19.2551 66.4363 18.5397 66.149 17.9544 65.6246C17.9544 61.7024 23.5658 59.2528 20.892 55.1187C20.6535 55.934 20.6029 57.0439 20.4186 57.9634C19.49 60.3591 17.5063 62.2771 16.762 64.7554C15.519 64.2777 14.2219 63.2756 13.1885 62.2232L14.6193 61.354C14.4603 60.826 14.0376 60.3806 13.6654 59.9317C12.7368 59.8023 12.1262 60.4094 11.3601 60.6464C10.6989 60.0646 10.0594 59.5401 9.53182 58.829C10.0088 57.4821 13.7196 58.5955 11.8407 56.383C10.5724 55.5928 9.29696 56.7206 8.18407 57.2486L6.67733 55.3557C7.9745 54.5655 9.26805 53.4593 10.8832 53.7754C11.2806 54.4865 11.3096 55.5353 12.0756 55.9053C14.8036 55.8514 16.7367 53.8005 18.8288 52.195C17.3726 50.0399 16.1839 47.0623 17.481 44.4547C18.518 41.8399 21.2208 39.6417 21.3436 36.754C21.3725 36.0967 21.2677 35.4035 20.9787 34.66C19.5478 31 19.0456 26.0541 21.7736 22.8143C20.2885 23.2094 19.4141 25.0484 18.9119 26.4456C17.2715 30.0194 19.3455 33.331 19.4177 36.754C19.4286 37.3718 19.378 37.9859 19.2262 38.6109C17.8207 41.4269 15.5479 43.898 15.1758 47.1414C13.5606 48.165 12.2346 49.9573 9.92928 49.3539C9.84979 49.9573 10.0341 50.8804 10.2436 51.5664C8.41893 51.491 7.17235 52.8271 5.63671 53.4593C4.8165 53.1971 4.60331 52.1447 4.28896 51.4084C6.08837 50.805 7.38554 49.0127 9.45233 49.0378C9.69081 48.3769 9.31864 47.7699 9.21385 47.1378C6.64481 46.0028 2.56904 52.7445 2.22578 46.9007C4.79482 46.7427 6.43525 44.3721 8.97899 44.1351L9.05487 42.2422C6.16786 41.9513 4.31064 44.9037 1.42724 44.6128L0.791308 42.0877C4.12997 42.2961 6.11728 39.3221 9.29696 39.1605C9.71971 38.6073 9.7703 37.792 9.8534 37.0305C6.38466 36.5816 4.00351 40.4032 0.321582 39.2431C0.321582 39.2431 0.195117 37.6519 0.126465 36.754H0.130078C0.104785 36.402 0.0794921 36.1577 0.0794921 36.1577C3.36396 37.4256 6.24735 35.0802 9.05848 33.8698C9.77391 33.6579 10.8868 34.0242 11.2084 33.2376C11.1795 32.6306 12.2924 31.923 11.3674 31.5028C7.25907 30.9497 4.53105 35.874 0.321582 33.6327L0 33.0006C0.878026 21.101 7.62763 9.60019 18.8288 3.93956C23.3634 1.36067 29.0002 0.0460816 34.6838 -0.000611425C41.5418 -0.0580797 48.4757 1.73062 53.6319 5.35831C58.6399 8.41131 63.4275 13.4434 66.029 18.5509C68.5149 23.0262 69.6604 28.0475 70 33.3921C65.6568 36.6534 62.7409 30.3175 58.3183 31.7363C58.5568 32.4223 58.6904 33.1299 59.1927 33.7117C63.1131 33.683 65.8122 37.7668 69.9169 36.1577L69.9205 36.754ZM20.0176 22.0995C17.2642 20.3073 13.7702 21.9954 11.2048 22.9688C10.9663 20.573 9.9871 18.3892 7.94559 16.8089C7.74686 16.7119 7.47226 16.5036 7.22655 16.4892C7.07841 16.4784 6.93749 16.5395 6.82909 16.7263C7.75409 22.3869 4.0541 26.3342 1.43086 30.6264C2.30527 31.3376 3.70722 31.2298 4.76591 31.0215C7.54452 29.9152 10.1931 27.9936 13.5064 28.6509C14.4856 26.9915 16.1297 25.386 17.4774 24.0714C18.3012 23.3674 19.4322 22.9149 20.0176 22.0995ZM28.4401 25.6554C28.3859 25.9966 28.4654 26.6036 28.9965 26.3702C29.8204 25.2388 31.2729 26.1331 32.1762 26.2121V25.8925C31.6812 25.1202 30.6659 24.7359 29.6361 24.7718C29.3976 24.779 29.1555 24.8149 28.9243 24.8688C28.5738 24.9478 28.3353 25.2603 28.4401 25.6554ZM41.3937 22.2648C40.653 20.6305 38.9583 19.9732 37.4191 19.5781C36.6639 19.4847 35.8834 19.4237 35.1066 19.4165C34.9621 19.4165 34.8175 19.4129 34.6694 19.4165C32.4978 19.4596 30.4238 20.0127 29.1555 21.7907C28.9749 22.2935 28.1727 22.9975 28.917 23.4465C30.5864 23.3387 32.4906 23.1304 33.6035 24.5563C33.6035 25.8206 34.4237 27.5052 33.047 28.1086C31.9052 27.0598 30.5539 28.554 29.3145 27.7135C28.7292 27.3723 28.3606 27.7709 28.1221 28.2702C27.7753 31.5351 29.4952 35.1341 32.5665 36.9515C33.8094 37.3969 35.486 37.8207 36.7832 37.1886C39.9086 35.7411 41.2022 32.4259 41.7839 29.3729C41.7044 28.791 41.7333 27.6596 40.9131 27.6309C39.9881 28.2127 38.6368 27.8679 37.654 27.6309C37.0722 27.8176 37.0469 28.6617 36.3857 28.8197L35.9846 28.5001C35.6414 27.0562 35.4282 25.0017 36.7795 23.9996C38.2899 23.3926 40.064 23.1304 41.6286 23.6045C41.9248 23.1052 41.4732 22.7101 41.3937 22.2648ZM39.7966 24.858C39.6918 24.8616 39.5907 24.8652 39.4859 24.8688C38.9294 25.2352 37.3143 24.973 37.896 26.2121C38.9041 25.4183 40.3061 25.9751 41.3142 26.3702C41.6864 26.187 41.6069 25.817 41.6322 25.501C41.307 24.9011 40.5373 24.8437 39.7966 24.858ZM51.3302 13.7271C49.3682 13.623 47.7278 14.7292 45.9284 15.2321C45.773 13.7092 46.9365 12.1001 47.2002 10.57C44.2879 10.7567 41.9827 12.4987 39.5726 13.8924C39.0162 12.5526 38.4561 11.2057 37.9033 9.86239L41.0793 6.85967L41.1624 6.46457L36.8699 6.22752C36.1291 4.93807 35.8401 3.39002 34.9657 2.20473C34.2502 3.54806 33.7697 4.96681 33.0543 6.31013L28.7653 6.54718V6.85967L32.0209 9.77978C31.6234 11.2811 31.2548 12.9118 30.2756 14.0468C28.3678 12.9118 26.4889 11.6762 24.4005 10.8896C23.8982 10.728 23.1792 10.4658 22.7311 10.807C23.3923 12.2545 24.3173 13.8133 24.162 15.3937C23.2876 15.2321 22.601 14.6754 21.7772 14.4419C20.7944 14.1761 19.6273 13.6553 18.677 13.9714C20.2669 16.1803 21.564 18.4934 22.0121 21.1549C27.2838 18.6263 33.4336 17.2327 39.8147 18.3138C42.8065 18.7879 45.5562 19.9984 48.2336 20.9969C48.3348 18.2097 50.1089 15.9684 51.3302 13.7271ZM60.3815 28.8952C63.0806 29.6063 65.7869 32.53 68.6486 30.6336C66.1591 26.5282 62.4555 22.7353 63.4853 17.3656C63.5937 16.9992 63.3552 16.6293 63.0119 16.5754C61.3968 17.2327 60.1466 18.8131 59.507 20.3683C59.2433 21.2878 59.0879 22.2648 58.7193 23.1304C56.7862 22.1283 54.7195 21.1585 52.3636 21.3956C51.5145 21.4997 50.2968 21.5572 50.1378 22.4228C52.8116 23.8451 55.0121 26.2157 56.6526 28.7407C57.7907 28.554 59.1891 28.712 60.3815 28.8952ZM32.0967 32.6055L32.1726 33.0832C33.206 33.7692 33.524 34.9293 34.9584 34.8252C36.2303 34.9006 37.1806 33.7153 37.8165 32.7707C36.0966 32.53 34.0045 32.8964 32.0967 32.6055ZM33.5276 30.4756C33.5782 30.6875 33.3975 31.0035 33.6866 31.1077C34.5357 30.9245 36.0677 31.5567 36.5411 30.5546C36.2123 30.1882 35.6703 30.0194 35.1066 30.0194C34.5393 30.0194 33.954 30.1846 33.5276 30.4756Z" fill="#4AA366"/>
<path opacity="0.99" d="M32.1003 29.5601H37.9069V31.9306H32.1003V29.5601Z" fill="white"/>
<path d="M33.1735 30.8283C33.9251 31.0043 34.1094 31.27 34.7019 31.3419C35.3306 31.3311 35.2403 31.2018 36.3424 30.8247C36.4146 30.7995 36.5122 30.6415 36.3893 30.5194C35.7064 29.8441 35.2331 30.3254 34.8067 30.3398C34.2394 30.347 33.7047 29.8585 33.1518 30.4942C33.0579 30.6271 33.0073 30.7528 33.1735 30.8283Z" fill="#4AA366"/>
</g>
<defs>
<clipPath id="clip0_309_1387">
<rect width="70" height="70" fill="white"/>
</clipPath>
</defs>
</svg>
